<svg xmlns="http://www.w3.org/2000/svg" viewBox="-1152 -997.6613 2304 1995.3226">
  <path fill="#fff" d="m-624 249.4153 128-221.7025L64 997.6613h-256l-128-221.7025-128 221.7025h-128L-640 886.81l192-332.5537zm96-665.1075h256l-560 969.9485-128-221.7025 128-221.7025h-256L-1152 0l64-110.8513h384zM96-665.1075 224-443.405H-896l128-221.7025h256L-640-886.81l64-110.8513h128l192 332.5538zm528 415.6922L496-27.7128-64-997.6613h256l128 221.7025 128-221.7025h128L640-886.81 448-554.2563zm-96 665.1075H272l560-969.9485 128 221.7025-128 221.7025h256L1152 0l-64 110.8513H704zM-96 665.1075-224 443.405H896L768 665.1075H512L640 886.81l-64 110.8513H448L256 665.1075z"/>
</svg>
